<svg width="168" height="158" viewBox="0 0 168 158" fill="none" xmlns="http://www.w3.org/2000/svg">
<path d="M24.3028 48.1367C23.05 48.1367 21.8132 47.5638 21.0106 46.4795C19.6658 44.663 20.0481 42.1001 21.8642 40.7549L44.4352 24.0433C46.2518 22.6986 48.8146 23.0809 50.1598 24.897C51.505 26.7135 51.1223 29.2764 49.3062 30.6216L26.7352 47.3332C26.0024 47.8753 25.1487 48.1367 24.3028 48.1367Z" fill="white" stroke="white" stroke-width="0.00166665"/>
<path d="M26.5324 69.6148C25.2498 69.6148 23.9869 69.0139 23.1891 67.8873C21.8829 66.0428 22.3191 63.4887 24.1631 62.1824L72.5256 27.9287C74.3711 26.623 76.9243 27.0587 78.231 28.9032C79.5372 30.7477 79.101 33.3019 77.257 34.6081L28.8944 68.8618C28.1761 69.3707 27.3499 69.6148 26.5324 69.6148Z" fill="white" stroke="white" stroke-width="0.00166665"/>
<path d="M160.482 0.59314H7.51944C3.75102 0.59314 0.668213 3.67643 0.668213 7.44485V56.5315V80.1232V125.312C0.668213 129.08 3.75102 132.164 7.51944 132.164H63.362C63.362 132.164 65.3615 132.044 65.3615 133.999C65.3615 136.279 65.3615 141.59 65.3615 144.261C65.3615 145.232 65.2883 145.854 64.1449 145.854C60.5074 145.854 49.5955 145.854 49.5955 145.854C46.4049 145.854 43.818 148.441 43.818 151.631C43.818 154.822 46.4049 157.409 49.5955 157.409H118.406C121.597 157.409 124.184 154.822 124.184 151.631C124.184 148.441 121.597 145.854 118.406 145.854C118.406 145.854 107.446 145.854 103.726 145.854C102.883 145.854 102.64 145.341 102.64 144.753C102.64 142.352 102.64 136.173 102.64 133.669C102.64 132.134 104.076 132.164 104.076 132.164H160.481C164.25 132.164 167.333 129.08 167.333 125.312V7.44485C167.334 3.67643 164.25 0.59314 160.482 0.59314ZM91.0852 134.03C91.0852 136.457 91.0852 142.312 91.0852 144.612C91.0852 145.164 90.8059 145.814 89.9634 145.814C86.9316 145.814 81.284 145.814 78.0168 145.814C76.9634 145.814 76.9166 145.259 76.9166 144.381C76.9166 141.785 76.9166 136.361 76.9166 134.12C76.9166 132.615 78.7091 132.561 78.7091 132.561H89.5724C89.5719 132.561 91.0852 132.465 91.0852 134.03ZM84.0009 124.587C80.2773 124.587 77.259 121.569 77.259 117.845C77.259 114.122 80.2773 111.103 84.0009 111.103C87.7241 111.103 90.7428 114.122 90.7428 117.845C90.7428 121.569 87.7241 124.587 84.0009 124.587ZM157.248 98.5705C157.248 102.339 154.165 105.422 150.397 105.422H17.6047C13.8362 105.422 10.7534 102.339 10.7534 98.5705V18.7703C10.7534 15.0019 13.8362 11.9186 17.6047 11.9186H150.397C154.165 11.9186 157.248 15.0019 157.248 18.7703V98.5705Z" fill="white" stroke="white" stroke-width="0.00166665"/>
</svg>
