<svg width="24" height="21" viewBox="0 0 24 21" fill="none" xmlns="http://www.w3.org/2000/svg">
<path d="M3.40341 6.36679C3.22301 6.36679 3.0449 6.29007 2.92932 6.14487C2.73568 5.9016 2.79073 5.5584 3.05225 5.37826L6.30251 3.14032C6.5641 2.96024 6.93315 3.01143 7.12686 3.25463C7.32057 3.4979 7.26545 3.8411 7.00394 4.02124L3.75367 6.25918C3.64815 6.33178 3.52523 6.36679 3.40341 6.36679Z" fill="white"/>
<path d="M3.72449 9.24303C3.53979 9.24303 3.35794 9.16257 3.24305 9.01169C3.05496 8.76469 3.11777 8.42265 3.38331 8.24772L10.3476 3.66063C10.6133 3.48577 10.981 3.54412 11.1692 3.79113C11.3573 4.03813 11.2945 4.38017 11.0289 4.55509L4.06463 9.14219C3.96119 9.21034 3.84222 9.24303 3.72449 9.24303Z" fill="white"/>
<path d="M23.0134 0H0.986587C0.44393 0 0 0.4129 0 0.917548V7.491V10.6503V16.7018C0 17.2064 0.44393 17.6193 0.986587 17.6193H9.028C9.028 17.6193 9.31594 17.6032 9.31594 17.8651C9.31594 18.1704 9.31594 18.8817 9.31594 19.2393C9.31594 19.3694 9.3054 19.4526 9.14074 19.4526C8.61694 19.4526 7.04561 19.4526 7.04561 19.4526C6.58615 19.4526 6.21363 19.799 6.21363 20.2263C6.21363 20.6536 6.58615 21 7.04561 21H16.9545C17.4139 21 17.7864 20.6536 17.7864 20.2263C17.7864 19.799 17.4139 19.4526 16.9545 19.4526C16.9545 19.4526 15.3761 19.4526 14.8404 19.4526C14.7191 19.4526 14.6841 19.384 14.6841 19.3051C14.6841 18.9837 14.6841 18.1563 14.6841 17.8209C14.6841 17.6153 14.8909 17.6193 14.8909 17.6193H23.0133C23.556 17.6193 24 17.2064 24 16.7018V0.917548C24.0001 0.4129 23.5561 0 23.0134 0ZM13.0202 17.8692C13.0202 18.1943 13.0202 18.9784 13.0202 19.2863C13.0202 19.3602 12.98 19.4472 12.8586 19.4472C12.4221 19.4472 11.6088 19.4472 11.1383 19.4472C10.9866 19.4472 10.9799 19.373 10.9799 19.2554C10.9799 18.9077 10.9799 18.1814 10.9799 17.8813C10.9799 17.6798 11.238 17.6726 11.238 17.6726H12.8023C12.8023 17.6726 13.0202 17.6597 13.0202 17.8692ZM12 16.6047C11.4638 16.6047 11.0292 16.2005 11.0292 15.7019C11.0292 15.2032 11.4638 14.799 12 14.799C12.5362 14.799 12.9709 15.2032 12.9709 15.7019C12.9709 16.2005 12.5362 16.6047 12 16.6047ZM22.5478 13.1207C22.5478 13.6253 22.1038 14.0382 21.5612 14.0382H2.43887C1.89622 14.0382 1.45229 13.6253 1.45229 13.1207V2.4342C1.45229 1.92955 1.89622 1.51665 2.43887 1.51665H21.5612C22.1038 1.51665 22.5478 1.92955 22.5478 2.4342V13.1207Z" fill="white"/>
</svg>
