<svg width="26" height="25" viewBox="0 0 26 25" fill="none" xmlns="http://www.w3.org/2000/svg">
<path d="M19.6438 2.55029L22.4722 5.37872L21.058 6.79293L18.2296 3.96451L19.6438 2.55029Z" fill="#FAA90B"/>
<path d="M13.845 8.60055H11.845V12.6005H13.845V8.60055Z" fill="#FAA90B"/>
<path fill-rule="evenodd" clip-rule="evenodd" d="M6.20879 18.8137C9.72351 22.3285 15.422 22.3285 18.9367 18.8137C22.4514 15.299 22.4514 9.60055 18.9367 6.08583C15.422 2.57111 9.72351 2.57111 6.20879 6.08583C2.69407 9.60054 2.69407 15.299 6.20879 18.8137ZM7.62301 17.3995C10.3567 20.1332 14.7888 20.1332 17.5225 17.3995C20.2562 14.6659 20.2562 10.2337 17.5225 7.50004C14.7888 4.76637 10.3567 4.76637 7.62301 7.50004C4.88934 10.2337 4.88934 14.6659 7.62301 17.3995Z" fill="#FAA90B"/>
</svg>
