<svg width="50" height="46" viewBox="0 0 50 46" fill="none" xmlns="http://www.w3.org/2000/svg">
<path d="M25 37C21.1341 37 17.6341 35.433 15.1006 32.8996L25.0001 23.0001L25 9C32.732 9 39 15.268 39 23C39 30.732 32.732 37 25 37Z" fill="black"/>
<path fill-rule="evenodd" clip-rule="evenodd" d="M47 23C47 35.1503 37.1503 45 25 45C12.8497 45 3 35.1503 3 23C3 10.8497 12.8497 1 25 1C37.1503 1 47 10.8497 47 23ZM43 23C43 32.9411 34.9411 41 25 41C15.0589 41 7 32.9411 7 23C7 13.0589 15.0589 5 25 5C34.9411 5 43 13.0589 43 23Z" fill="black"/>
</svg>
