<svg width="14" height="16" viewBox="0 0 14 16" fill="none" xmlns="http://www.w3.org/2000/svg">
<path d="M7.00012 15.1733C6.01345 15.1733 5.02012 14.8 4.24678 14.06C2.28012 12.1666 0.106784 9.14665 0.926784 5.55331C1.66678 2.29331 4.51345 0.833313 7.00012 0.833313C7.00012 0.833313 7.00012 0.833313 7.00678 0.833313C9.49345 0.833313 12.3401 2.29331 13.0801 5.55998C13.8935 9.15331 11.7201 12.1666 9.75345 14.06C8.98012 14.8 7.98678 15.1733 7.00012 15.1733ZM7.00012 1.83331C5.06012 1.83331 2.56678 2.86665 1.90678 5.77331C1.18678 8.91331 3.16012 11.62 4.94678 13.3333C6.10012 14.4466 7.90678 14.4466 9.06012 13.3333C10.8401 11.62 12.8135 8.91331 12.1068 5.77331C11.4401 2.86665 8.94012 1.83331 7.00012 1.83331Z" fill="#969696"/>
</svg>
